<?xml version="1.0" encoding="UTF-8"?>
<svg version="1.1" viewBox="0 0 1408 912" width="352" height="228" xmlns="http://www.w3.org/2000/svg">
<path transform="translate(651,340)" d="m0 0h16l15 3 16 8 9 7 9 10 6 10 5 14 4 18 1 5 8 2 15 2 6 3 3 4v13l-7 30-10 42-10 41-4 11-6 9-2 1h-131l-6-8-5-14-27-111v-14l4-5 5-2 17-2 5-2 3-7 3-16 5-13 6-11 6-8 10-8 15-8zm2 29-11 4-7 5-9 13-5 12v7l4 6 4 3h7l5-1h43l13-2 1-1v-8l-4-15-6-11-8-7-10-4-3-1zm-20 77-10 3-11 8-4 5-4 12v7l4 13 6 11 10 13 9 8 6 1 10-7 12-9 13-10 4-3 1-9v-5l-4-6h-2l-1 2-4-1-1-2h-3l-1 6-8-1-1 5-3 9-7 6-3 1-5-3-7-9-4-10 1-6 4-6 5-3h7l14 4h8l10-4h8l6 4 3 5v11l-6 11-14 14-11 9-16 11v3l14 8 4-1 11-7 13-11 10-9 8-10 7-14 1-3v-18l-5-10-8-8-9-4h-18l-9 2h-9l-15-3z" fill="#FEDE11"/>
</svg>
