<?xml version="1.0" encoding="UTF-8"?>
<svg version="1.1" viewBox="0 0 2048 2048" width="512" height="512" xmlns="http://www.w3.org/2000/svg">
<path transform="translate(1022,126)" d="m0 0 12 1 9 4 11 8 11 11 11 14 10 15 14 23 12 20 13 23 14 27 16 34 11 26 9 25 6 23 4 24 1 11v17l-3 22-4 15-8 19-11 18-9 11-9 10-8 8-14 11-10 7-16 9-15 6-21 6-2 65h67l18 2 18 6 16 9 13 11 9 10 7 11 6 12 4 12 2 11 1 20v837l-1 32-3 15-5 13-7 13-10 13-12 11-13 8-14 6-15 4-7 1-37 1h-109l-66-1-17-3-13-5-13-7-10-8-13-13-9-14-5-10-5-16-2-16v-872l2-16 5-16 8-16 10-13 10-10 13-9 15-7 14-4 13-2h6l2 3v78l2 20 4 16 5 12 7 13 10 13 9 10 6 10 2 6v15l-4 11-8 14-11 18-17 28-4 12v14l4 11 7 9 10 5 3 1h11l10-4 8-7 7-10 13-22 16-26 8-16 5-14 3-14 1-8v-17l-3-19-6-18-7-14-10-14-10-11-5-7-3-8-1-8-1-147-21-6-16-6-21-11-16-12-10-9-15-15-12-16-9-15-10-21-6-19-4-22v-26l4-20 6-15 8-12 10-11 17-13 14-12 18-18 10-13 11-17 10-19 9-23 6-18 9-30 7-19 9-17h2l2-4 8-6 5-2z"/>
<path transform="translate(797,1368)" d="m0 0h3l1 19v179l1 47 3 18 6 18 8 16 9 13 10 12 2 1v2l4 2 11 9 14 8 13 6 16 5 22 3h209l21-3 21-7 17-9 11-8 10-9 8-8 10-14 10-19 5-15 3-15 1-9 1-239 1-2 9 1 34 9 26 8 33 12 24 10 18 8 19 10 15 8 23 14 20 14 14 11 11 10 8 7 11 11 18 22 10 15 10 18 8 19 6 20 3 19v34l-3 18-6 21-9 21-11 19-12 17-11 13-12 13-14 13-11 9-20 15-22 14-21 12-21 11-31 14-29 11-36 12-36 10-40 9-39 7-35 5-40 4-29 2-22 1h-70l-40-2-50-5-48-7-40-8-44-11-42-13-32-12-26-11-27-13-23-13-21-13-14-10-14-11-13-11-7-7-6-5-7-8-9-10-10-13-10-15-10-19-6-15-5-16-4-21-1-9v-19l2-17 5-22 7-19 13-25 11-16 11-14 12-13 14-14 22-18 23-16 28-17 33-17 30-13 38-14 36-11 30-8z"/>
</svg>
