<?xml version="1.0" encoding="UTF-8"?>
<svg version="1.1" viewBox="0 0 2048 2048" width="512" height="512" xmlns="http://www.w3.org/2000/svg">
<path transform="translate(1082,1311)" d="m0 0h11l23 2 28 5 66 14 36 6 29 3 13 1h49l33-3 34-5 57-12 34-7 21-3 13-1h15l23 2 25 5 20 6 21 9 19 10 16 11 14 11 13 12 7 7 9 11 10 13 11 18 8 15 8 20 6 20 5 26 1 11v37l-3 21-4 18-5 17-9 21-8 16-14 21-8 10-12 14-7 7-11 9-17 13-15 9-17 9-23 9-22 6-25 4-14 1h-469l-23-2-24-5-24-8-18-8-15-8-15-10-14-11-13-12-10-10-9-11-8-10-12-19-8-16-8-19-6-20-4-20-2-14-1-14v-13l2-24 5-25 4-14 7-19 10-21 12-19 10-13 9-11 16-16 11-9 15-11 19-11 21-10 24-8 23-5 15-2zm4 65-9 2-6 3-8 7-5 10-1 4v12l3 9 6 8 7 5 10 3 34 3 28 5 66 14 35 6 44 4h45l35-3 38-6 34-7 41-9 24-4 33-3 10-3 6-4 8-9 3-8v-14l-4-10-8-9-8-4-10-2-23 1-25 3-31 6-56 12-29 5-25 3-14 1h-46l-32-3-35-6-70-15-32-5-28-2z"/>
<path transform="translate(385,863)" d="m0 0h638l2 2-1 390-7 3-24 7-22 9-19 9-20 12-17 12-13 11-8 7-6 5-5 5-10 11-9 11-15 20-13 22-11 22-8 21-8 27-4 19-3 27v52l-1 1h-417l-1-1v-702zm126 65-11 2-9 6-6 7-4 10-1 13v183l2 13 5 10 8 7 12 4h395l8-3 9-6 5-7 3-9v-205l-4-10-8-9-8-4-10-2z"/>
<path transform="translate(135,1823)" d="m0 0h1778l2 1-2 6-9 16-9 11-9 9-13 9-12 6-17 5-14 2h-1615l-17-3-14-5-14-8-10-8-11-11-7-10-9-16v-3z"/>
<path transform="translate(479,671)" d="m0 0h446l23 2 16 5 16 8 14 11 11 12 11 18 6 17 2 14 1 40-1 2h-640l-1-1v-34l2-17 5-16 8-16 10-13 10-10 10-7 15-8 16-5z"/>
<path transform="translate(385,1631)" d="m0 0h431l3 4 8 20 11 22 13 21 16 21 11 12 7 8 7 7 11 9 3 2v3h-435l-14-2-15-5-15-8-10-8-13-13-9-14-7-15-4-18-1-13v-31z"/>
<path transform="translate(1785,287)" d="m0 0h15l21 3 16 5 11 5 15 8 14 11 13 13 11 15 10 19 6 18 3 16v31l-4 20-6 16-8 16-10 14-9 10-11 10-15 10-19 9-21 6-13 2h-26l-17-3-18-6-16-8-12-8-13-11-11-12-7-10-8-14-6-14-5-19-2-16v-14l3-21 5-17 6-14 8-13 9-12 8-9 11-9 13-9 15-8 18-6 15-3z"/>
<path transform="translate(545,991)" d="m0 0h318l2 3v124l-1 2h-320l-1-1v-126z"/>
<path transform="translate(575,159)" d="m0 0h385l20 2 16 5 14 7 16 12 11 12 9 14 6 14 3 12 1 8 1 105-1 2h-64l-1-1-1-102-5-12-8-7-10-4-7-1-416-1-1-1v-31l2-11 4-8 3-4h2v-2l9-5 4-2z"/>
<path transform="translate(1339,607)" d="m0 0h11l19 3 16 6 14 8 13 11 9 10 7 11 7 14 4 14 1 6v28l-4 17-9 19-9 12-9 10-15 11-15 7-17 5-7 1h-24l-14-3-13-5-13-7-10-8-13-13-9-14-5-10-5-16-2-13v-13l2-14 5-16 8-16 10-13 10-10 13-9 14-7 13-4z"/>
<path transform="translate(577,543)" d="m0 0h253l3 3-1 62h-256l-1-1v-62z"/>
<path transform="translate(1659,991)" d="m0 0h9l16 3 16 8 10 9 8 9 7 14 3 10v23l-4 13-6 12-11 12-9 7-13 6-13 3h-18l-12-3-12-6-10-8-7-7-8-13-4-11-2-11v-9l3-16 4-9 6-10 10-11 10-7 11-5z"/>
<path transform="translate(673,287)" d="m0 0h61l3 2v189l-1 2h-64l-1-1v-190z"/>
</svg>
