<?xml version="1.0" encoding="UTF-8"?>
<svg version="1.1" viewBox="0 0 2048 2048" width="512" height="512" xmlns="http://www.w3.org/2000/svg">
<path transform="translate(822,1055)" d="m0 0h20l26 3 23 6 16 6 16 8 14 8 16 12 14 12 13 14 10 13 11 18 8 16 7 19 5 19 3 22 1 36-1 268h575v-291l1-17 3-19 6-22 9-22 10-18 10-14 8-10 2-3h2l2-4 10-10 11-9 15-11 18-10 18-8 19-6 19-4 23-2h15l21 2 23 5 15 5 16 7 17 9 16 11 11 9 5 4v2l4 2 2 4h2l7 8 10 13 9 14 10 19 8 21 6 25 2 15v35l-2 15-4 18-7 21-7 16-8 14-11 16-12 14-14 14-17 13-13 8-19 10-12 5-1 54v114l-1 112-3 21-6 21-7 16-9 16-10 14-12 13-13 12-15 10-18 10-22 8-25 5-11 1h-788l-18-2-20-5-20-8-15-8-14-10-13-11-8-8-9-11-9-13-9-16-8-21-4-16-2-14-1-14v-270l-9-3-19-9-19-12-11-9-10-9-13-13-11-14-12-19-8-16-7-18-5-19-3-19-1-10v-21l3-25 4-17 6-18 6-14 11-20 8-11 9-11 9-10 9-9 17-13 14-9 19-10 19-7 18-5 19-3z"/>
<path transform="translate(1025,703)" d="m0 0h574l31 2 22 4 24 7 21 9 19 10 20 14 11 9 13 12 12 13 12 16 11 17 8 16 7 16 6 18 5 21 3 26 1 79-1 2h-55l-23 3-26 6-23 8-22 10-17 10-12 8-16 12-15 14-4 4h-2l-2 4-7 7-9 11-12 17-13 22-9 19-8 22-6 23-3 16-2 18-1 23v29l-1 2-36-1h-374l-38 1-1-2-1-46-3-28-5-24-6-19-6-16-9-19-10-17-8-12-10-13-11-12v-2h-2l-6-7-2-1v-2l-4-2-12-11-18-13-22-13-23-11-19-7-23-6-23-4-11-1h-53l-1-2v-69l2-25 5-25 6-20 6-15 8-17 11-18 9-12 8-10 11-12 9-9 14-11 15-11 18-10 19-9 24-8 23-5 17-2zm29 225-10 2-9 6-6 7-3 6-1 5v13l4 10 7 8 10 5 3 1h13l10-4 8-6 5-8 2-6v-14l-4-10-8-9-11-5zm255 0-9 2-9 6-6 7-3 6-1 5v13l4 10 7 8 9 5 4 1h13l10-4 8-6 5-8 2-6v-14l-4-10-8-9-11-5zm257 0-10 2-9 6-6 7-3 6-1 5v13l4 10 7 8 9 5 4 1h13l10-4 8-6 5-8 2-6v-14l-4-10-8-9-11-5zm-384 192-10 2-9 6-6 7-3 6-1 5v13l4 10 7 8 9 5 4 1h13l10-4 8-6 5-8 2-6v-14l-4-10-8-9-11-5zm256 0-9 2-8 4-7 7-4 8-1 5v13l4 10 7 8 9 5 4 1h13l10-4 8-6 5-8 2-6v-14l-5-12-7-7-11-5z"/>
<path transform="translate(991,63)" d="m0 0h636l16 2 10 6 7 8 4 11 1 250v48l-1 163-7 14-8 7-8 3-6 1h-649l-11-4-9-8-5-9-2-14v-447l2-9 4-8 5-5 5-4 8-4zm34 65-1 2v174l4-1 7-8 95-95 10-6 9-2 11 1 9 4 10 8 164 164 4-2 103-103 10-6 9-2 11 1 9 4 10 8 99 99h1v-240z"/>
<path transform="translate(274,383)" d="m0 0h220l19 2 18 6 16 9 11 10 5 5 7 8 8 13 6 16 15 59 12 42 12 39 15 43 13 35 16 39 13 30 7 16 7 15 8 17 2 6v15l-6 12-9 8-8 3-6 1h-585l-11-4-9-8-6-12v-15l5-13 14-30 18-41 18-45 14-38 13-38 17-56 11-41 10-40 6-15 7-12 11-13 9-8 10-7 15-7 13-4z"/>
<path transform="translate(353,895)" d="m0 0h62l2 2v893l-1 2h-64l-1-1v-894z"/>
<path transform="translate(1132,1343)" d="m0 0h363l25 1 15 2 2 7v117l-1 2h-448l-1-1v-123l3-2 17-2z"/>
<path transform="translate(255,1855)" d="m0 0h253l17 1 15 3 15 6 13 8 11 9 10 11 9 14 6 14 4 18v20l-4 10-8 9-8 4-8 2h-394l-11-4-9-8-6-12-1-12 2-16 5-16 8-16 10-13 10-10 10-7 15-8 16-5z"/>
<path transform="translate(513,895)" d="m0 0h61l3 3-1 165-4 10-8 9-10 5-5 1h-11l-11-4-9-8-6-12-1-8v-159z"/>
<path transform="translate(896,1917)" d="m0 0 16 1 162 1 2 1-2 5-21 42-7 9-9 6-9 2h-106l-11-4-9-8-6-12-1-9v-32z"/>
<path transform="translate(1723,1917)" d="m0 0h5v41l-4 10-4 6-6 5-9 4-6 1h-105l-11-4-9-8-10-18-14-29-2-5 4-1 161-1z"/>
<path transform="translate(1342,191)" d="m0 0 13 2 8 4 7 7 5 9 1 3v16l-6 12-9 8-11 4h-13l-10-4-9-8-6-12v-16l4-10 6-7 10-6z"/>
</svg>
